<svg width="20" height="20" xmlns="http://www.w3.org/2000/svg"><g stroke="#0069FF" fill="none" fill-rule="evenodd" stroke-linecap="round"><path d="M3.19 8.25L.75 9.64a.55.55 0 0 0-.18.19.49.49 0 0 0 .18.68l6.5 3.75a3.48 3.48 0 0 0 3.5 0l8-4.6a.39.39 0 0 0 .18-.18.49.49 0 0 0-.17-.68l-2.44-1.46"/><path d="M3.19 12.25L.75 13.64a.55.55 0 0 0-.18.19.49.49 0 0 0 .18.68l6.5 3.75a3.48 3.48 0 0 0 3.5 0l8-4.6a.39.39 0 0 0 .18-.18.49.49 0 0 0-.17-.68l-2.41-1.46M.75 5.64a.55.55 0 0 0-.18.19.49.49 0 0 0 .18.68l6.5 3.75a3.48 3.48 0 0 0 3.5 0l8-4.6a.39.39 0 0 0 .18-.18.49.49 0 0 0-.17-.68L12.49 1a3.52 3.52 0 0 0-3.56 0L.75 5.64z"/></g></svg>
