<svg width="45" height="45" viewBox="0 0 45 45" xmlns="http://www.w3.org/2000/svg"><g fill="#005DFF" fill-rule="nonzero"><path d="M36.7 40.3c-.3 0-.5-.1-.7-.3l-5.4-5.3-2.2 4.2c-.2.4-.6.6-1 .5-.4 0-.7-.3-.9-.7L20.1 21c-.1-.4 0-.8.2-1 .3-.3.7-.4 1-.2L39 26.2c.4.1.6.5.7.9 0 .4-.2.8-.5 1L35 30.2l5.4 5.3c.2.2.3.4.3.7 0 .3-.1.5-.3.7L37.5 40c-.2.2-.5.3-.8.3zm-6.3-8.2c.3 0 .5.1.7.3l5.7 5.6 1.6-1.6-5.7-5.5c-.2-.2-.3-.5-.3-.9 0-.3.2-.6.5-.7l3.4-1.7-13.5-4.9L27.7 36l1.8-3.4c.1-.3.4-.5.7-.5h.2zM9.177 10.126l1.414-1.414 6.86 6.859-1.415 1.414zM20.4 5.4h2V15h-2zM25.47 15.52l6.293-6.293 1.414 1.415-6.293 6.293zM5.5 20.1h10v2h-10zM9.197 31.914l6.647-6.646 1.415 1.414-6.647 6.647z"/></g></svg>
